<svg width="1600" height="1200" viewBox="0 0 1600 1200" fill="none" xmlns="http://www.w3.org/2000/svg">
<path d="M155.4 996.2C204.6 998.4 253.8 999.5 303 999.4C304.9 999.4 304.9 996.4 303 996.4C253.8 996.5 204.6 995.4 155.4 993.2C153.5 993.1 153.5 996.1 155.4 996.2ZM306 921.8C313.7 950.7 320.9 979.8 327.5 1009C327.9 1010.9 330.8 1010.1 330.4 1008.2C323.7 979 316.6 949.9 308.9 921C308.4 919.2 305.5 920 306 921.8ZM440 924C437.2 951.5 434.4 979.1 431.7 1006.6C431.5 1008.5 434.5 1008.5 434.7 1006.6C437.5 979.1 440.3 951.5 443 924C443.1 922.1 440.1 922.1 440 924Z" fill="#E8E8E8"/>
<path d="M328.3 1011.7C345.8 1014.8 363.5 1016.2 381.3 1015.7C398.3 1015.2 416.9 1013.9 433.1 1008.5C434.9 1007.9 434.1 1005 432.3 1005.6C416.2 1010.9 398.1 1012.2 381.3 1012.7C363.8 1013.2 346.3 1011.8 329.1 1008.8C327.2 1008.4 326.4 1011.3 328.3 1011.7ZM307.2 922.8C327.9 928.6 350.4 928.7 371.8 928.8C394.8 929 417.8 927.7 440.6 925.1C442.5 924.9 442.5 921.9 440.6 922.1C418.4 924.7 396.1 925.9 373.8 925.8C352.1 925.7 329.1 925.7 308 919.9C306.1 919.4 305.3 922.3 307.2 922.8Z" fill="#E8E8E8"/>
<path d="M298.6 912.5C298.8 914.4 299 916.4 299.2 918.3C299.3 919.5 299.3 921 299.8 922.1C301 924.7 305 923.8 307.3 923.8C309.2 923.8 309.2 920.8 307.3 920.8H303.9C302.4 920.8 302.4 920.5 302.3 919C302.1 916.8 301.9 914.7 301.7 912.5C301.4 910.6 298.4 910.5 298.6 912.5Z" fill="#E8E8E8"/>
<path d="M300.6 914.1C325.6 917 350.7 918.4 375.9 918.6C388.3 918.7 400.7 918.5 413.2 918.1C419.4 917.9 425.6 917.6 431.8 917.3C434.7 917.2 438.7 916.2 441.6 916.8C445.1 917.4 444.9 920.4 445.3 923.5C445.6 922.9 446 922.3 446.3 921.7H442.4C440.5 921.3 439.7 924.2 441.6 924.6C443.6 925 445.1 925 447 924.6C447.9 924.4 448.2 923.5 448 922.8C447.5 919.3 447.9 914.9 443.7 914C441.2 913.4 438.1 914.1 435.5 914.2C432.2 914.4 429 914.5 425.7 914.7C411.7 915.3 397.6 915.7 383.5 915.7C355.7 915.7 328 914.4 300.4 911.1C298.7 910.9 298.7 913.9 300.6 914.1ZM322.3 986.8C330.3 997.3 339.7 1006.4 350.3 1014.2C351.9 1015.3 353.4 1012.7 351.8 1011.6C341.6 1004.1 332.5 995.3 324.8 985.2C323.7 983.7 321.1 985.2 322.3 986.8ZM315.6 956.3C331.2 978.8 350.4 998.5 372.6 1014.6C374.2 1015.7 375.7 1013.1 374.1 1012C352.4 996.2 333.5 976.8 318.2 954.8C317.1 953.2 314.5 954.7 315.6 956.3ZM309.5 929.5C336.5 961.5 366.5 991.4 402.3 1013.6C403.9 1014.6 405.5 1012 403.8 1011C368.2 989 338.4 959.3 311.6 927.4C310.4 925.9 308.3 928.1 309.5 929.5ZM338.2 927.8C363.9 957.7 392.4 986.1 424.2 1009.5C425.8 1010.6 427.3 1008 425.7 1006.9C394.1 983.7 365.8 955.3 340.3 925.7C339 924.2 336.9 926.3 338.2 927.8ZM371 929.9C388.4 951.2 408.4 970.2 430.6 986.5C432.2 987.6 433.7 985 432.1 983.9C410.1 967.8 390.3 948.9 373.1 927.8C371.9 926.3 369.8 928.4 371 929.9ZM397.8 928.8C409 941.4 421.8 952.2 436 961.3C437.6 962.3 439.1 959.7 437.5 958.7C423.5 949.8 410.9 939 399.9 926.7C398.6 925.2 396.5 927.3 397.8 928.8Z" fill="#E8E8E8"/>
<path d="M259.4 764C265.9 777.7 270.3 792.1 272.8 807.1C272.9 807.8 273.6 808.2 274.2 808.2C274.8 808.2 278 808.1 278.2 809.1C278.3 809.5 276.3 811.8 276.1 812.3C275.5 813.9 275.5 815.8 276.1 817.4C276.9 819.3 278.4 820.6 280.2 821.3C280.8 821.6 281.5 821.7 282.2 821.8C282.8 821.9 283.4 821.9 284 821.8C284.8 821.7 284.7 821.8 283.8 822.2C282.8 823.7 281.4 823.9 281 826.1C280.7 828.2 281.7 830.2 282.5 832C285.8 839 287.7 846.4 290.4 853.7C299.7 878.5 317.5 899 337.6 915.9C339.1 917.1 341.2 915 339.7 913.8C319 896.4 300.6 875.1 291.9 849C290.8 845.6 289.8 842.2 288.6 838.9C287.6 836 285.7 833 284.8 830.1C283.8 828.5 283.9 826.7 285.2 824.9L286.4 824C286.7 823.5 287.3 823.2 287.6 822.6C288 821.5 287.7 820.5 286.9 819.7C285.6 818.4 283.6 819.1 281.9 818.6C275.4 816.7 280.7 812.3 281.2 809.1C281.9 804.9 276.7 805.4 273.9 805.2C274.4 805.6 274.9 805.9 275.3 806.3C272.8 791.1 268.2 776.4 261.6 762.5C261.2 760.7 258.6 762.2 259.4 764Z" fill="#E8E8E8"/>
<path d="M260.5 763.3C293 772 321.5 794.1 342.2 820.3C364.2 848.1 377.9 881.5 385.3 916C385.7 917.9 388.6 917.1 388.2 915.2C380.7 880.2 366.7 846.4 344.4 818.2C323.4 791.7 294.4 769.3 261.4 760.5C259.4 759.9 258.6 762.8 260.5 763.3Z" fill="#E8E8E8"/>
<path d="M272.3 775.7C312.1 814.4 342.8 861.9 361.7 914.2C362.4 916 365.3 915.2 364.6 913.4C345.5 860.7 314.6 812.7 274.4 773.6C273.1 772.2 270.9 774.3 272.3 775.7Z" fill="#E8E8E8"/>
<path d="M290 838.6C298.4 839.5 306.6 841.4 314.4 844.5C322 847.5 330.3 851.3 335.1 858.2C336.2 859.8 338.8 858.3 337.7 856.7C332.9 849.8 325.4 845.9 317.8 842.7C308.9 838.9 299.6 836.6 289.9 835.6C288.1 835.4 288.1 838.4 290 838.6ZM304.9 783.8C304.8 795.3 306.7 806.6 310.4 817.5C311 819.3 313.9 818.5 313.3 816.7C309.7 806.1 307.9 795.1 307.9 783.8C307.9 781.9 304.9 781.9 304.9 783.8ZM359.8 838.2C364.7 819.9 381 809 394.9 797.8C409.7 785.9 424 773.2 437.6 760C436.8 759.5 435.9 759 435.1 758.5C430.6 770.6 429.7 783.3 429.9 796.1C430.1 808.9 433 823.6 428.9 836C429.4 835.6 429.9 835.3 430.3 834.9C427.1 835.1 423.9 835.4 420.7 835.6C419.7 835.7 418.7 836.9 419.4 837.9C421.7 841 424.4 842 424.3 846.6C424.3 849.8 423.5 853.5 422.4 856.5C421.3 859.6 418.4 861.7 417.4 864.6C416.6 867.2 418.6 869.4 418.6 872C418.7 876.3 415.6 879.9 413.4 883.3C411.3 886.5 409.4 889.8 407.7 893.2C404.3 899.9 401.6 906.8 399.6 914C399.1 915.9 402 916.7 402.5 914.8C405 905.9 408.6 897.3 413.3 889.3C416.5 883.9 422.5 877.6 421.8 870.8C421.5 868.1 420.1 867.3 421.3 864.2C421.4 864.1 423.2 861.7 423.3 861.5C425.2 858.4 426.1 854.9 426.7 851.4C427.1 848.8 427.9 845.6 427.5 843C426.9 839.3 424.1 839 422 836.2C421.6 837 421.1 837.7 420.7 838.5C423.9 838.3 427.1 838 430.3 837.8C431 837.7 431.5 837.4 431.7 836.7C435.5 825.1 433.2 811.6 432.8 799.6C432.4 785.9 432.9 772.1 437.8 759.1C438.4 757.6 436.3 756.7 435.3 757.6C420.8 771.7 405.6 785.2 389.7 797.8C376.1 808.6 361.4 819.6 356.7 837.2C356.4 839.3 359.3 840.1 359.8 838.2Z" fill="#E8E8E8"/>
<path d="M426.5 773C416.7 790.1 406.7 807 397.3 824.3C388.5 840.3 380.7 856.9 377 874.8C376.6 876.7 379.5 877.5 379.9 875.6C383.7 857.3 391.8 840.5 400.8 824.2C410 807.5 419.7 791.1 429.1 774.5C430 772.9 427.4 771.3 426.5 773Z" fill="#E8E8E8"/>
<path d="M397 800.8C398.3 806.5 398.9 812.2 398.7 818C398.6 819.9 401.6 819.9 401.7 818C401.9 811.9 401.3 806 399.9 800C399.4 798.1 396.6 798.9 397 800.8ZM413.3 781.7C414.4 786 414.6 790.2 414.1 794.5C413.9 796.4 416.9 796.4 417.1 794.5C417.7 789.9 417.4 785.4 416.2 780.9C415.7 779.1 412.8 779.9 413.3 781.7ZM414 801.6C419.9 798.1 426 795 432.3 792.4C434.1 791.7 433.3 788.8 431.5 789.5C424.9 792.2 418.6 795.4 412.4 799C410.8 800 412.3 802.6 414 801.6ZM388.2 851.8C392 848.6 395.8 845.5 399.7 842.5C403.8 839.3 408.3 835 413.3 833C415.1 832.3 414.3 829.4 412.5 830.1C408 831.8 404.3 835.1 400.5 838.1C395.6 841.9 390.8 845.7 386.1 849.7C384.6 850.9 386.7 853 388.2 851.8ZM272.4 795.7C279.4 796.4 286.4 797.1 293.4 797.7C295.3 797.9 295.3 794.9 293.4 794.7C286.4 794 279.4 793.3 272.4 792.7C270.5 792.5 270.5 795.5 272.4 795.7ZM455.9 995.2H937.6C939.5 995.2 939.5 992.2 937.6 992.2H455.9C453.9 992.2 453.9 995.2 455.9 995.2ZM879.7 750.2V794C879.7 795.9 882.7 795.9 882.7 794V750.2C882.7 748.3 879.7 748.3 879.7 750.2ZM810.7 800.7H956.2C958.1 800.7 958.1 797.7 956.2 797.7H810.7C808.8 797.7 808.7 800.7 810.7 800.7Z" fill="#E8E8E8"/>
<path d="M843.3 801.5V839.4C843.3 841.3 846.3 841.3 846.3 839.4V801.5C846.3 799.5 843.3 799.5 843.3 801.5ZM918.3 800.7V834.1C918.3 836 921.3 836 921.3 834.1V800.7C921.3 798.8 918.3 798.8 918.3 800.7ZM870.8 842.3H982.1C984 842.3 984 839.3 982.1 839.3H870.8C868.9 839.3 868.9 842.3 870.8 842.3ZM786.9 1024.2H1032.6C1034.5 1024.2 1034.5 1021.2 1032.6 1021.2H786.9C785 1021.2 785 1024.2 786.9 1024.2ZM1125.6 998.3H1434.7C1436.6 998.3 1436.6 995.3 1434.7 995.3H1125.6C1123.7 995.3 1123.7 998.3 1125.6 998.3ZM128.7 1049.5H376C377.9 1049.5 377.9 1046.5 376 1046.5H128.7C126.8 1046.5 126.8 1049.5 128.7 1049.5ZM294.9 1079.5H496.8C498.7 1079.5 498.7 1076.5 496.8 1076.5H294.9C292.9 1076.5 292.9 1079.5 294.9 1079.5ZM1318 224.5V140.9C1318 139 1315 139 1315 140.9V224.5C1315 226.4 1318 226.4 1318 224.5Z" fill="#E8E8E8"/>
<path d="M1317.5 140.3H1425.8C1427.7 140.3 1427.7 137.3 1425.8 137.3H1317.5C1315.6 137.3 1315.6 140.3 1317.5 140.3Z" fill="#E8E8E8"/>
<path d="M1424.3 139C1424.1 167.3 1423.9 195.6 1423.6 223.9C1423.6 225.8 1426.6 225.8 1426.6 223.9C1426.8 195.6 1427 167.3 1427.3 139C1427.3 137.1 1424.3 137.1 1424.3 139Z" fill="#E8E8E8"/>
<path d="M1318 226H1424.8C1426.7 226 1426.7 223 1424.8 223H1318C1316.1 223 1316.1 226 1318 226ZM1320.9 146.7V217.1C1320.9 219 1323.9 219 1323.9 217.1V146.7C1323.9 144.8 1320.9 144.8 1320.9 146.7Z" fill="#E8E8E8"/>
<path d="M1323.1 148.2H1417.8C1419.7 148.2 1419.7 145.2 1417.8 145.2H1323.1C1321.1 145.2 1321.1 148.2 1323.1 148.2Z" fill="#E8E8E8"/>
<path d="M1416.2 147.4L1415.9 216.5C1415.9 218.4 1418.9 218.4 1418.9 216.5L1419.2 147.4C1419.2 145.5 1416.2 145.5 1416.2 147.4Z" fill="#E8E8E8"/>
<path d="M1323.7 219H1417C1418.9 219 1418.9 216 1417 216H1323.7C1321.8 216 1321.8 219 1323.7 219ZM1323.1 198.3C1334.6 194.3 1346.7 197.9 1357.9 201.2C1369.3 204.5 1380.5 208.5 1391.4 213.1C1393.2 213.8 1394 210.9 1392.2 210.2C1380.1 205.1 1367.7 200.8 1355.1 197.3C1344.4 194.4 1333.1 191.6 1322.3 195.4C1320.5 196 1321.3 198.9 1323.1 198.3Z" fill="#E8E8E8"/>
<path d="M1361.1 201.7C1380 200.6 1397.7 193 1416.4 190.9C1418.3 190.7 1418.3 187.7 1416.4 187.9C1397.7 190 1380 197.5 1361.1 198.7C1359.1 198.9 1359.1 201.9 1361.1 201.7ZM1396.9 165.1C1392.7 162.7 1396.5 154.8 1401 156.7C1403.4 157.7 1403.9 160.6 1402.6 162.7C1401.2 165 1398.3 165.4 1395.9 164.7C1394 164.2 1393.2 167.1 1395.1 167.6C1399.1 168.7 1403.6 167.5 1405.6 163.6C1407.4 160.1 1406 155.5 1402.2 153.9C1394.4 150.6 1388 163.6 1395.4 167.7C1397 168.6 1398.6 166 1396.9 165.1ZM1366.3 138.3C1366.4 136.6 1366.5 134.9 1367 133.3C1367.4 132 1368.4 128.9 1369.9 128.3C1372.6 127.3 1373.6 136.8 1373.8 138.6C1374 140.5 1377 140.5 1376.8 138.6C1376.5 135.1 1375.7 124.1 1370.1 124.9C1367.7 125.2 1366 127.9 1365.1 129.9C1363.9 132.5 1363.5 135.4 1363.4 138.2C1363.3 140.2 1366.3 140.2 1366.3 138.3ZM1383.1 604.8V640.9C1383.1 642.8 1386.1 642.8 1386.1 640.9V604.8C1386.1 602.9 1383.1 602.9 1383.1 604.8Z" fill="#E8E8E8"/>
<path d="M1346.8 645.3H1428.5C1430.4 645.3 1430.4 642.3 1428.5 642.3H1346.8C1344.9 642.3 1344.9 645.3 1346.8 645.3Z" fill="#E8E8E8"/>
<path d="M1358.3 646.2V663.2C1358.3 665.1 1361.3 665.1 1361.3 663.2V646.2C1361.3 644.3 1358.3 644.3 1358.3 646.2ZM1402 647.1V667.3C1402 669.2 1405 669.2 1405 667.3V647.1C1405 645.1 1402 645.1 1402 647.1Z" fill="#E8E8E8"/>
<path d="M1380.8 671.2H1437.5C1439.4 671.2 1439.4 668.2 1437.5 668.2H1380.8C1378.9 668.2 1378.9 671.2 1380.8 671.2Z" fill="#E8E8E8"/>
<path d="M688.9 963.6C720.4 942.3 736.2 931.6 740.3 930.3C750.3 927.1 782.7 916.8 811 934.1C831.3 946.5 850 973.4 842.2 991.4C836.6 1004.2 819.5 1008.2 804 1011.9C781.1 1017.3 761.5 1014.3 750.5 1011.7C746.2 1015.9 739.3 1021.5 729.6 1025.2C713.5 1031.4 694.9 1030.3 694 1026.6C693.6 1024.7 697.6 1021 717 1013.4C714.7 1010.9 711.3 1007.9 706.5 1005.8C692.3 999.3 678.1 1005.6 675.4 1006.9C689.3 1015 692.3 1019.2 691.6 1021.5C689.8 1027.3 661.5 1029.2 653.9 1015.9C653.1 1014.6 650.9 1010.1 652.7 1001.6C656.3 986 669.3 976.9 688.9 963.6Z" fill="#161616"/>
<path d="M826.1 985.8C829.3 979.2 843.7 980.8 849.3 981.4C856.5 982.2 862.9 982.9 868.7 988C873.1 991.8 879.5 1000.1 877.2 1006.8C875.1 1013.2 867.2 1012.7 851.9 1020.2C849.3 1021.5 824.3 1033.8 826 1041.9C826.7 1045.2 831.2 1045.1 845.5 1051.2C857.9 1056.4 865.2 1059.6 871.3 1066.6C874.3 1070.1 880.3 1077 878.7 1084C875.7 1096.9 848.9 1099.1 848.2 1097.1C847.6 1095.4 866.4 1090.7 866.6 1081.9C866.8 1075.2 856.3 1069.8 849.7 1066.3C830.3 1056.2 817.2 1059.8 812.1 1050.1C809.2 1044.6 810.8 1038.7 811.1 1037.6C812.6 1032.2 816.8 1027.6 837.3 1017.3C856 1007.9 864.3 1005.7 864.2 1001.5C864.1 997.6 856.9 994.4 852.5 993.3C840.1 990 831 997.8 826.8 993.4C825 991.4 825.1 988 826.1 985.8ZM655.3 937.4L674.2 951.5C683.2 950.6 692.1 949.8 701.1 948.9C706.7 943.5 712.3 938 717.9 932.6C718.3 936 719.1 943.7 719.4 947.4C722.9 980.7 723.2 983.6 721.1 987.4C714.2 999.7 690.9 1004.7 677.5 996.1C671 991.9 668.5 985.6 663.8 973.5C658.1 958.9 656.1 946.1 655.3 937.4Z" fill="#161616"/>
<path d="M680.7 972C679.2 975.1 675.9 977 672.5 976.4C671.6 976.2 671.2 977.7 672.1 977.8C676.2 978.5 680.3 976.5 682 972.7C682.4 971.9 681.2 971.1 680.7 972ZM694.6 971C697.9 974.2 702.3 975.6 706.8 974.9C707.8 974.8 707.3 973.3 706.4 973.5C702.4 974.1 698.5 972.8 695.6 970C694.9 969.3 693.9 970.3 694.6 971ZM689.3 980.5C689 980.5 688.8 980.4 688.5 980.4C688.6 980.3 688.6 980.1 688.7 980C688.9 980.2 689.2 980.4 689.4 980.6C689.4 980.4 689.3 980.3 689.3 980.1C689 979.2 687.6 979.6 687.9 980.5C688.4 982.7 689.2 986.1 686.5 987.2C685.6 987.6 686 989 686.9 988.6C690.5 987.1 690.1 983.2 689.4 980C688.9 980.1 688.4 980.3 688 980.4C688 980.6 688.1 980.7 688.1 980.9C688.2 981.2 688.5 981.5 688.8 981.5C691.4 981.3 689.3 977.7 688.1 979.8C687.6 980.5 688.8 981.3 689.3 980.5Z" fill="white"/>
<path d="M688.3 981.2C688.8 982.9 688.9 984.8 690 986.3C690.9 987.5 692.3 988.1 693.8 987.8C694.7 987.6 694.3 986.2 693.4 986.4C690.6 987 690.2 982.6 689.7 980.8C689.5 979.9 688.1 980.3 688.3 981.2ZM683.5 982.6C680.6 981.3 677.6 980.7 674.4 980.9C673.4 981 673.4 982.5 674.4 982.4C677.3 982.2 680.1 982.7 682.7 983.9C683.6 984.3 684.4 983 683.5 982.6ZM680.9 984.6C678.4 984.8 676.2 985.8 674.5 987.5C673.8 988.2 674.9 989.2 675.6 988.6C677.1 987.2 678.9 986.3 681 986.1C681.8 986 681.8 984.5 680.9 984.6ZM695.2 981.9C698.1 980.8 701 980.4 704.1 980.7C705.1 980.8 705.1 979.3 704.1 979.2C700.9 978.9 697.8 979.4 694.8 980.5C693.9 980.8 694.2 982.3 695.2 981.9ZM697.2 984.6C699.4 984.3 701.5 984.5 703.6 985.3C704.5 985.6 704.9 984.2 704 983.9C701.8 983.1 699.5 982.9 697.2 983.2C696.2 983.2 696.2 984.8 697.2 984.6ZM673.6 967.6C675.1 966.7 676.9 966.7 678.4 967.6C679.2 968.1 680 966.8 679.2 966.3C677.2 965.2 674.9 965.2 672.9 966.3C672 966.8 672.8 968.1 673.6 967.6ZM694.6 965.6C696.1 964.8 697.8 964.6 699.6 964.8C700.5 964.9 701 963.5 700 963.4C697.9 963.1 695.8 963.4 693.9 964.4C692.9 964.7 693.7 966 694.6 965.6Z" fill="white"/>
<path d="M670.7 934.2C673.8 932.9 676.9 931.6 679.9 930.2C679.3 929.8 678.8 929.4 678.2 928.9C677 932.7 675.2 936.1 672.8 939.3C672.2 940.1 673.2 941.3 674.1 941C677.5 939.7 680.9 938.5 684.3 937.2C685.6 936.7 685.1 934.5 683.7 935C680.3 936.3 676.9 937.5 673.5 938.8C673.9 939.4 674.3 939.9 674.8 940.5C677.4 937.2 679.2 933.6 680.5 929.6C680.8 928.6 679.7 928 678.8 928.3C675.7 929.6 672.6 930.9 669.6 932.3C668.2 932.9 669.4 934.8 670.7 934.2ZM675.7 916C677.8 914.8 679.9 914 682.2 913.5C681.8 912.9 681.4 912.4 680.9 911.8C680 913.8 678.9 915.8 677.6 917.6C677.1 918.4 677.8 919.2 678.6 919.3C681.3 919.5 683.8 918.8 685.9 917.2C687 916.3 685.9 914.4 684.8 915.3C683 916.7 681 917.3 678.7 917.1C679 917.7 679.3 918.2 679.7 918.8C681 916.9 682.1 915 683 913C683.4 912.1 682.7 911.1 681.7 911.3C679.2 911.8 676.8 912.7 674.6 914C673.3 914.8 674.4 916.7 675.7 916ZM692.2 940.2C688.9 936.9 694.6 935 695.2 932.1C695.8 928.7 691.8 925.5 696.3 922.9C697.6 922.2 696.4 920.2 695.2 921C693.6 921.9 692.3 923.3 691.9 925.2C691.3 928.4 694.1 930.3 691.7 933.2C690.6 934.6 689.3 935 688.9 936.9C688.5 938.8 689.3 940.4 690.6 941.8C691.7 942.8 693.3 941.2 692.2 940.2Z" fill="#161616"/>
<path d="M968.3 654.7C717.6 672.8 466.9 690.8 216.3 708.9C209.5 527.1 202.7 345.3 196 163.5L951.4 153.3C957 320.4 962.6 487.5 968.3 654.7Z" fill="white" stroke="#161616" stroke-width="3.5"/>
<path d="M409 252H554.9C556.8 252 556.8 249 554.9 249H409C407.1 249 407.1 252 409 252ZM463.6 264.3H613.9C615.8 264.3 615.8 261.3 613.9 261.3H463.6C461.6 261.3 461.6 264.3 463.6 264.3ZM226.4 557.7C228.2 599.5 230 641.4 231.8 683.2C231.9 685.1 234.9 685.1 234.8 683.2C233 641.4 231.2 599.5 229.4 557.7C229.3 555.8 226.3 555.8 226.4 557.7ZM446.7 533.3H459.7C461.6 533.3 461.6 530.3 459.7 530.3H446.7C444.8 530.3 444.8 533.3 446.7 533.3ZM471 533.3H504.2C506.1 533.3 506.1 530.3 504.2 530.3H471C469.1 530.3 469.1 533.3 471 533.3ZM529.3 531.7H569C570.9 531.7 570.9 528.7 569 528.7H529.3C527.4 528.7 527.4 531.7 529.3 531.7ZM464.6 554.3H513.2C515.1 554.3 515.1 551.3 513.2 551.3H464.6C462.6 551.3 462.6 554.3 464.6 554.3ZM488 543H544.7C546.6 543 546.6 540 544.7 540H488C486.1 540 486.1 543 488 543ZM588.4 649.9H683.9C685.8 649.9 685.8 646.9 683.9 646.9H588.4C586.5 646.9 586.5 649.9 588.4 649.9ZM666.9 658H717.1C719 658 719 655 717.1 655H666.9C665 655 665 658 666.9 658ZM710.6 645.8H760C761.9 645.8 761.9 642.8 760 642.8H710.6C708.7 642.8 708.7 645.8 710.6 645.8ZM794.8 374.7H886.3C888.2 374.7 888.2 371.7 886.3 371.7H794.8C792.9 371.7 792.9 374.7 794.8 374.7ZM766.5 379.5H795.6C797.5 379.5 797.5 376.5 795.6 376.5H766.5C764.5 376.5 764.5 379.5 766.5 379.5ZM772.1 387.6H870C871.9 387.6 871.9 384.6 870 384.6H772.1C770.2 384.6 770.2 387.6 772.1 387.6ZM892.8 380.3H911.4C913.3 380.3 913.3 377.3 911.4 377.3H892.8C890.8 377.3 890.8 380.3 892.8 380.3ZM868.5 502.5H896C897.9 502.5 897.9 499.5 896 499.5H868.5C866.5 499.5 866.5 502.5 868.5 502.5ZM850.7 510.6H880.6C882.5 510.6 882.5 507.6 880.6 507.6H850.7C848.7 507.6 848.7 510.6 850.7 510.6ZM865.2 518.7H924.3C926.2 518.7 926.2 515.7 924.3 515.7H865.2C863.3 515.7 863.3 518.7 865.2 518.7ZM902.5 509H920.3C922.2 509 922.2 506 920.3 506H902.5C900.5 506 900.5 509 902.5 509ZM490.6 384.3H532.5C534.4 384.3 534.4 381.3 532.5 381.3H490.6C488.7 381.3 488.7 384.3 490.6 384.3ZM521.1 392.9H583C584.9 392.9 584.9 389.9 583 389.9H521.1C519.2 389.9 519.1 392.9 521.1 392.9ZM575.4 381.4H610.6C612.5 381.4 612.5 378.4 610.6 378.4H575.4C573.5 378.4 573.5 381.4 575.4 381.4ZM217.5 221.8L224.1 449.6C224.7 471.2 225.3 492.7 226 514.3C226.1 516.2 229.1 516.2 229 514.3L222.4 286.5C221.8 264.9 221.2 243.4 220.5 221.8C220.5 219.9 217.5 219.9 217.5 221.8ZM944.4 469.9L948.9 620.4C949 622.3 952 622.3 951.9 620.4L947.4 469.9C947.4 468 944.4 468 944.4 469.9Z" fill="#161616"/>
<path d="M737.3 446.9C737.9 453 738.5 459.2 739 465.3C744.8 463.8 750.5 462.2 756.3 460.7C755.5 454.6 754.8 448.4 754 442.3C748.4 443.8 742.9 445.4 737.3 446.9ZM733.8 493.6C739.8 492.8 745.7 492.1 751.7 491.3C752.5 498.6 753.2 505.9 754 513.2C748.6 513.4 743.2 513.6 737.9 513.8C736.5 507 735.2 500.3 733.8 493.6ZM755.7 537.9C757.6 544.2 759.5 550.6 761.5 556.9C766.9 554.4 772.3 551.9 777.6 549.4C775.9 543.8 774.1 538.3 772.4 532.7C766.9 534.5 761.3 536.2 755.7 537.9Z" fill="#F24088"/>
<path d="M360.4 597.5C361.7 616.9 363 636.3 364.3 655.6C398.3 653.4 432.3 651.3 466.3 649.1C466.9 631.7 467.6 614.2 468.2 596.8C432.3 597.1 396.3 597.3 360.4 597.5Z" fill="#F24088"/>
<path d="M783.1 202.8C787.021 202.8 790.2 200.158 790.2 196.9C790.2 193.641 787.021 191 783.1 191C779.179 191 776 193.641 776 196.9C776 200.158 779.179 202.8 783.1 202.8Z" fill="#F24088"/>
<path d="M300.6 247C303.859 247 306.5 245.254 306.5 243.1C306.5 240.946 303.859 239.2 300.6 239.2C297.342 239.2 294.7 240.946 294.7 243.1C294.7 245.254 297.342 247 300.6 247Z" fill="#EC615B"/>
<path d="M394.5 360.1C397.041 360.1 399.1 357.682 399.1 354.7C399.1 351.718 397.041 349.3 394.5 349.3C391.96 349.3 389.9 351.718 389.9 354.7C389.9 357.682 391.96 360.1 394.5 360.1Z" fill="#EC615B"/>
<path opacity="0.21" d="M352.3 225.4C354.1 225.1 357.6 241.8 366.2 272.1C377.5 312 388.7 344.2 396.8 366.2C384.5 373.8 357 388.3 319.5 388.8C293 389.1 272.1 382.3 259.7 377.1C284 379.8 303.6 379.1 317.3 377.8C339 375.8 335.2 373.5 351.6 372.7C358.4 372.4 367.3 372.4 376.4 366.9C379.7 364.9 382.1 362.7 383.7 361.1C377.3 347.9 369.1 328.5 362.5 304.2C352 264.7 349.7 225.9 352.3 225.4Z" fill="#6D6C6C"/>
<path opacity="0.25" d="M446 333.9C447.6 346.6 450.5 360.8 455.3 376C469 419.2 492.1 450 509.5 469C499.1 476.7 486.2 484.7 470.7 491.4C423.7 511.7 379.8 508.7 356.3 505.1L353.6 489.2C363.6 489.5 374.2 489.3 385.3 488.7C424.9 486.2 458.9 477.3 486 467.4C477.4 452.8 471.2 440.2 466.9 430.7C456.5 408 448.8 390.9 446.1 367.8C444.4 353.7 445.1 341.8 446 333.9Z" fill="#6D6C6C"/>
<path opacity="0.14" d="M763.9 400.1C764.9 422.9 767.3 441.8 769.4 455.4C774.3 486.6 777.9 508.2 790.7 532.5C798.7 547.6 807.7 558.7 814.2 565.9C802.9 575.6 787.7 586.6 768.2 595.4C719.2 617.7 673.2 613.2 651.7 609.6C650.6 604.7 649.5 599.8 648.4 594.8C651.1 595 655.3 595.2 660.4 595.3C677.4 595.7 712.8 596.3 753.4 582.7C764.8 578.9 780.8 572.5 798.8 561.9C791.7 552.4 784.7 541.1 778.6 528C754.5 476.3 759.3 426.1 763.9 400.1Z" fill="#6D6C6C"/>
<path opacity="0.18" d="M840.5 175.8C842.5 185.1 845.4 199.3 848.3 217C853.7 251.2 853.3 263.6 859.6 283.8C862.9 294.3 868.8 309.2 879.9 326.2C870.6 333.8 859 341.7 844.7 348.3C797.9 370 753.1 363.9 732.5 359.6C732.7 355.6 732.9 351.6 733.1 347.7C735.7 348.4 739.6 349.3 744.4 350.1C750.7 351.1 774 354.5 817.8 343.5C829.9 340.5 846.2 335.7 864.9 328C861.3 321.6 856 311.6 851.2 298.8C837.2 261.7 837.3 229.5 837.5 212.9C837.6 203.8 838.2 191.1 840.5 175.8Z" fill="#6D6C6C"/>
<path d="M242.7 219.7C232.8 272.1 242.8 325.1 252.8 376.7C253.2 378.6 256.1 377.8 255.7 375.9C245.8 324.9 235.9 272.4 245.6 220.5C245.9 218.7 243 217.8 242.7 219.7Z" fill="#161616"/>
<path d="M245.5 219.3C259.8 228.9 277.1 230.6 294 229.4C313.3 228 332.4 223.9 351.5 220.7C353.4 220.4 352.6 217.5 350.7 217.8C332.4 220.8 314.1 224.7 295.6 226.2C278.7 227.6 261.4 226.3 247 216.6C245.4 215.6 243.9 218.2 245.5 219.3ZM349.5 222.8C352.3 270.6 359.5 319.4 383.7 361.4C384.7 363.1 387.3 361.6 386.3 359.9C362.4 318.3 355.3 270 352.5 222.8C352.4 220.9 349.4 220.9 349.5 222.8Z" fill="#161616"/>
<path d="M255.3 377.5C278 384.1 302.4 380.1 325.5 378.2C346 376.5 368 375.7 385.6 363.7C387.2 362.6 385.7 360 384.1 361.1C366.4 373.2 344.2 373.6 323.6 375.3C301.4 377.1 278 380.8 256.1 374.5C254.2 374.1 253.4 377 255.3 377.5ZM293.7 243.7C291.7 242.8 293.9 240.9 295.1 240.6C296.6 240.2 299.5 240 300.2 241.7C300.7 243 299.9 244.7 298.7 245.2C296.8 246.1 294.7 245 293.4 243.7C292 242.3 289.9 244.4 291.3 245.8C293.8 248.3 297.9 249.6 301 247.3C303.5 245.5 304.4 241.5 302.3 239.1C299.9 236.4 294.8 236.7 292.1 238.7C289.7 240.5 289.2 244.8 292.3 246.2C294 247.1 295.5 244.5 293.7 243.7Z" fill="#161616"/>
<path d="M333.8 377.9C326.6 414.4 334.3 451.3 342.1 487.1C342.5 489 345.4 488.2 345 486.3C337.3 451.1 329.7 414.7 336.7 378.7C337.1 376.8 334.2 376 333.8 377.9ZM375.1 339.6C398.2 335.2 421.6 333.6 445 334.5L443.5 333C438.8 381.2 459.4 427.1 484.4 467C485.4 468.6 488 467.1 487 465.5C462.3 426 441.8 380.7 446.5 333C446.6 332.2 445.7 331.5 445 331.5C421.3 330.6 397.6 332.3 374.3 336.7C372.4 337.1 373.2 340 375.1 339.6Z" fill="#161616"/>
<path d="M343.7 489.2C392.3 494.9 441.6 487.6 486.6 468.4C488.4 467.6 486.8 465.1 485.1 465.8C440.7 484.8 391.7 491.8 343.7 486.2C341.8 486 341.8 489 343.7 489.2ZM393.9 351.9C393.9 351.8 394.2 351.3 394.2 351.1C394.3 350.7 394.6 350.3 394.9 350C395.5 349.5 396.2 349.1 397 349C398.5 348.8 399.9 349.6 400.3 351.1C400.6 352.3 400.1 353.9 398.7 354.1C397.4 354.3 396.2 353.4 396 352.1C395.7 350.2 392.8 351 393.1 352.9C393.6 356.4 398.1 358.1 401 356.4C404.2 354.5 404 349.6 401.3 347.3C398.3 344.8 393.3 346.1 391.6 349.5C390.8 351.2 390.8 353.5 392.7 354.5C394.2 355.3 396.4 354.6 396.8 352.7C397.1 350.8 394.2 350 393.9 351.9ZM252.6 274.1C279.2 277.8 305.6 272.3 331.1 265C333 264.5 332.2 261.6 330.3 262.1C305.3 269.2 279.4 274.8 253.4 271.2C251.5 270.9 250.7 273.8 252.6 274.1ZM257.6 293.7C271.4 295.2 285.2 293.8 298.5 289.6C300.3 289 299.6 286.1 297.7 286.7C284.7 290.8 271.2 292.1 257.6 290.7C255.7 290.5 255.7 293.5 257.6 293.7ZM257.6 317.9C284 321 310.6 319.1 336.2 312.4C338.1 311.9 337.3 309 335.4 309.5C310 316.2 283.7 318 257.6 314.9C255.7 314.6 255.7 317.6 257.6 317.9ZM356.4 471.4C382.9 472.6 409.4 469.4 434.8 461.8C436.6 461.3 435.9 458.4 434 458.9C408.8 466.4 382.7 469.6 356.4 468.4C354.4 468.3 354.4 471.3 356.4 471.4ZM361.5 448.5C373.3 448.1 385.1 447.2 396.9 445.9C398.8 445.7 398.8 442.7 396.9 442.9C385.1 444.2 373.4 445.1 361.5 445.5C359.6 445.6 359.6 448.6 361.5 448.5ZM371.1 407.3C378.9 408.3 387 406.3 394.7 405.2C403.2 403.9 411.6 402.7 420.1 401.4C422 401.1 421.2 398.2 419.3 398.5C411.5 399.7 403.6 400.9 395.8 402C387.7 403.2 379.3 405.4 371.1 404.3C369.2 404 369.2 407 371.1 407.3ZM724.5 183.1C713.6 236.6 712.5 291.6 721.2 345.5C721.5 347.4 724.4 346.6 724.1 344.7C715.5 291.4 716.7 236.8 727.4 183.9C727.8 182 724.9 181.2 724.5 183.1Z" fill="#161616"/>
<path d="M727.9 183.8C764.2 175.5 801.7 173.8 838.7 178.8C840.6 179.1 841.4 176.2 839.5 175.9C802 170.8 764 172.5 727.1 180.9C725.3 181.4 726.1 184.3 727.9 183.8Z" fill="#161616"/>
<path d="M837.8 176.1C836.7 227.6 837.4 282 863.5 328.1C864.5 329.8 867 328.3 866.1 326.6C840.3 281 839.7 227.1 840.8 176.1C840.9 174.2 837.9 174.2 837.8 176.1Z" fill="#161616"/>
<path d="M723.5 347.1C734.7 350.5 746.7 350.7 758.3 350.8C770.8 350.9 783.3 350.1 795.8 348.4C819.7 345.2 843 338.7 865.3 329.3C867.1 328.6 865.5 326 863.8 326.7C841.5 336.1 818 342.5 794 345.6C782.8 347 771.5 347.8 760.2 347.7C748.3 347.7 735.8 347.6 724.4 344.1C722.4 343.7 721.7 346.6 723.5 347.1ZM784.7 187C781.3 188.2 779.8 192.1 781 195.4C782.4 199.1 786.7 200 789.9 197.8C793 195.6 794 191.2 791 188.4C788.4 186 783.9 185.9 781.5 188.5C780.2 189.9 782.3 192 783.6 190.6C786.6 187.4 792.5 191.9 788.4 195.1C786.8 196.3 784.5 196.3 783.8 194.2C783.3 192.6 783.8 190.4 785.5 189.8C787.3 189.2 786.5 186.3 784.7 187ZM726 229.6C753.3 230.3 780.5 229.8 807.7 228C809.6 227.9 809.6 224.9 807.7 225C780.5 226.8 753.2 227.4 726 226.6C724 226.6 724 229.6 726 229.6ZM728.7 244.8C738.9 245.2 749.1 245.6 759.2 246C761.1 246.1 761.1 243.1 759.2 243C749 242.6 738.8 242.2 728.7 241.8C726.7 241.7 726.7 244.7 728.7 244.8ZM725.9 266C751.6 267.4 777.6 268.6 802.9 263C804.8 262.6 804 259.7 802.1 260.1C777 265.6 751.3 264.4 725.9 263C724 262.9 724 265.9 725.9 266ZM353.1 591.1C350.8 611.1 350 631.2 350.7 651.3C350.8 653.2 353.8 653.2 353.7 651.3C353 631.2 353.8 611.1 356.1 591.1C356.3 589.2 353.3 589.2 353.1 591.1Z" fill="#161616"/>
<path d="M354.1 592.3C389.7 592.3 425.4 591.8 461 590.7C462.9 590.6 462.9 587.6 461 587.7C425.4 588.8 389.7 589.3 354.1 589.3C352.2 589.3 352.2 592.3 354.1 592.3Z" fill="#161616"/>
<path d="M460.7 589.3L461.6 641.4C461.6 643.3 464.6 643.3 464.6 641.4L463.7 589.3C463.7 587.4 460.6 587.4 460.7 589.3Z" fill="#161616"/>
<path d="M350.4 649.1C350.6 655.6 361.9 652.7 365.6 652.5C376.2 651.8 386.8 651.1 397.3 650.3C418.8 648.8 440.3 647.4 461.8 645.9C463.7 645.8 463.7 642.8 461.8 642.9C443.5 644.1 425.3 645.4 407 646.6L380.9 648.4C378.3 648.6 353.4 651 353.3 649.1C353.4 647.2 350.4 647.2 350.4 649.1ZM362.2 605.8C386.2 604.7 410.2 605.6 434 608.6C435.9 608.8 435.9 605.8 434 605.6C410.2 602.6 386.2 601.7 362.2 602.8C360.2 602.9 360.2 605.9 362.2 605.8ZM363.1 621C376.5 620 390 618.9 403.4 617.9C405.3 617.8 405.3 614.8 403.4 614.9C390 615.9 376.5 617 363.1 618C361.2 618.1 361.2 621.1 363.1 621ZM367.6 636.3C386.9 633.8 407.9 628.7 427.3 632.2C429.2 632.5 430 629.7 428.1 629.3C408.3 625.7 387.3 630.7 367.6 633.3C365.8 633.6 365.7 636.6 367.6 636.3ZM627.7 420.9C611.8 477.5 613.8 538.1 633.3 593.6C633.9 595.4 636.8 594.6 636.2 592.8C616.9 537.8 614.9 477.8 630.6 421.7C631.1 419.8 628.2 419 627.7 420.9Z" fill="#161616"/>
<path d="M629.7 421.9C674.2 421.7 718.5 415.9 761.6 404.6C763.5 404.1 762.7 401.2 760.8 401.7C718 412.9 674 418.7 629.7 418.9C627.7 418.9 627.7 421.9 629.7 421.9Z" fill="#161616"/>
<path d="M760.8 402.8C759 430.6 760.2 458.6 765.2 486.1C767.7 500 770.7 513.9 776.2 526.9C781.7 539.8 789.3 551.5 798.2 562.2C799.4 563.7 801.6 561.6 800.3 560.1C791.2 549.2 783.5 537.1 778.1 523.9C773 511.3 770.2 497.8 767.9 484.5C763.1 457.6 762 430.1 763.7 402.8C763.9 400.9 760.9 400.9 760.8 402.8Z" fill="#161616"/>
<path d="M633.7 595.2C690.3 599.2 749.4 592.8 799 563.6C800.7 562.6 799.2 560 797.5 561C748.2 590 689.7 596.1 633.7 592.2C631.8 592 631.8 595 633.7 595.2ZM693.9 430.9C692.2 428 695.6 424.4 698.5 426.7C701.6 429.2 698.3 433.2 695 431.9C693.2 431.2 692.4 434.1 694.2 434.8C696.9 435.9 700.2 434.7 701.8 432.3C703.6 429.6 702.8 426.2 700.3 424.3C694.9 420 688.1 426.7 691.3 432.4C692.3 434.1 694.9 432.6 693.9 430.9ZM630.7 465.4C660.6 464.9 690.5 462.8 720.3 459.2C722.2 459 722.2 456 720.3 456.2C690.6 459.9 660.7 461.9 630.7 462.4C628.8 462.5 628.8 465.5 630.7 465.4ZM731 445.3C731.9 449.9 732.8 454.6 733.7 459.2C734.1 461.1 737 460.3 736.6 458.4C735.7 453.8 734.8 449.1 733.9 444.5C733.6 442.6 730.7 443.4 731 445.3Z" fill="#161616"/>
<path d="M733 444.9C738.5 444.1 744 443.3 749.6 442.4C751.5 442.1 750.7 439.2 748.8 439.5C743.3 440.3 737.8 441.1 732.2 442C730.3 442.3 731.1 445.2 733 444.9Z" fill="#161616"/>
<path d="M748.7 441.5C749.5 445.8 750.2 450.1 751 454.3C751.3 456.2 754.2 455.4 753.9 453.5C753.1 449.2 752.4 444.9 751.6 440.7C751.3 438.9 748.4 439.7 748.7 441.5Z" fill="#161616"/>
<path d="M736.2 461.5C742.1 460.3 747.7 458.7 753.3 456.5C755.1 455.8 754.3 452.9 752.5 453.6C746.9 455.7 741.2 457.4 735.4 458.6C733.5 459 734.3 461.9 736.2 461.5ZM736.7 448.3C737.8 450.8 739.3 452.8 741.5 454.5C742.3 455.1 743.8 455.1 744 453.8C744.8 448.4 746.7 443.6 749.9 439.1C751 437.5 748.4 436 747.3 437.6C744 442.2 741.9 447.4 741.1 453C741.9 452.8 742.8 452.6 743.6 452.3C741.7 450.8 740.3 449 739.3 446.7C738.5 445 735.9 446.5 736.7 448.3ZM737.8 491.2C736.2 498.4 736.9 505.4 739.8 512.1C740.6 513.9 743.1 512.3 742.4 510.6C739.8 504.7 739.3 498.3 740.7 492C741.1 490.1 738.2 489.3 737.8 491.2Z" fill="#161616"/>
<path d="M739.8 492.2C745.8 491.2 751.8 490.3 757.8 489.3L756 487.5C755 493.9 755.7 500 758.2 506C758.9 507.8 761.8 507 761.1 505.2C758.8 499.8 758 494.1 758.9 488.3C759.1 487.1 758.3 486.3 757.1 486.5C751.1 487.4 745.1 488.4 739.1 489.4C737.1 489.6 737.9 492.5 739.8 492.2Z" fill="#161616"/>
<path d="M741.1 512.2C747.7 512 754 510.7 760.2 508.5C762 507.8 761.2 504.9 759.4 505.6C753.5 507.8 747.4 509 741.1 509.2C739.2 509.2 739.2 512.2 741.1 512.2ZM742 498.3C742.9 500.9 744.4 502.7 746.8 504.1C747.9 504.7 748.9 503.9 749.1 502.8C749.7 497.5 751.1 492.4 753.3 487.5C754.1 485.8 751.5 484.2 750.7 486C748.3 491.4 746.8 497 746.1 502.8C746.9 502.4 747.6 501.9 748.4 501.5C746.7 500.5 745.7 499.3 745 497.4C744.3 495.7 741.4 496.5 742 498.3ZM744 537.6C744.7 544.3 746.5 550.6 749.5 556.6C750.3 558.3 752.9 556.8 752.1 555.1C749.4 549.6 747.7 543.7 747.1 537.6C746.8 535.7 743.8 535.7 744 537.6Z" fill="#161616"/>
<path d="M745.4 537.3C753.1 538 760.3 536.6 767.2 533.2C766.5 532.9 765.7 532.6 765 532.3C766.3 538.4 769 543.7 773.2 548.4C774.5 549.8 776.6 547.7 775.3 546.3C771.5 542 769.1 537.2 767.9 531.6C767.7 530.6 766.5 530.3 765.7 530.7C759.3 533.8 752.5 535 745.4 534.4C743.5 534.2 743.5 537.2 745.4 537.3Z" fill="#161616"/>
<path d="M752.2 557.7C760 554.8 767.7 551.7 775.2 548.3C777 547.5 775.4 544.9 773.7 545.7C766.4 549 758.9 552 751.4 554.8C749.6 555.5 750.4 558.4 752.2 557.7ZM750.6 542.6C753 544.7 758.5 551.9 761.3 546.6C762.6 544.2 762.3 540.9 763.1 538.2C764.3 534.4 766.3 530.9 768.9 527.9C770.1 526.4 768 524.3 766.8 525.8C764 529.1 761.8 532.7 760.5 536.9C759.9 538.8 759.4 540.8 759.1 542.8C758.7 545.3 758 544.7 756.1 543.5C754.9 542.7 753.8 541.5 752.7 540.5C751.3 539.2 749.2 541.3 750.6 542.6ZM633.4 514.3C661.4 514 689.3 511.7 716.9 507.3C718.8 507 718 504.1 716.1 504.4C688.7 508.7 661.1 511 633.4 511.2C631.5 511.3 631.5 514.3 633.4 514.3ZM630.2 473.7C648.3 474.2 666.3 473.6 684.3 472.1C686.2 471.9 686.2 468.9 684.3 469.1C666.3 470.6 648.2 471.1 630.2 470.7C628.3 470.6 628.3 473.6 630.2 473.7ZM634.5 520.2C653.5 521.1 672.5 520.4 691.3 518C693.2 517.8 693.2 514.8 691.3 515C672.4 517.3 653.4 518.1 634.5 517.2C632.6 517.1 632.6 520.1 634.5 520.2ZM697.7 516.6C703.1 516.7 708.4 516 713.6 514.3C715.4 513.7 714.6 510.8 712.8 511.4C707.9 513 702.9 513.7 697.7 513.6C695.8 513.6 695.8 516.6 697.7 516.6ZM644.7 557.8C667.5 556.4 690.2 554.3 712.8 551.2C714.7 550.9 714.7 547.9 712.8 548.2C690.2 551.2 667.5 553.4 644.7 554.8C642.7 554.9 642.7 557.9 644.7 557.8ZM647.3 564.8H669.8C671.7 564.8 671.7 561.8 669.8 561.8H647.3C645.4 561.8 645.4 564.8 647.3 564.8ZM653.8 571.5C665.5 570.8 677.2 569.7 688.9 568.3C698.3 567.1 708.4 566.6 716.5 561.1C718.1 560 716.6 557.4 715 558.5C706.5 564.3 695.1 564.6 685.2 565.7C674.8 566.9 664.3 567.8 653.9 568.5C651.9 568.6 651.8 571.6 653.8 571.5ZM768 490.7C786.2 489.8 804.3 487.4 822.2 483.6C821.6 483.3 821 482.9 820.4 482.6C828.8 507.6 841.2 530.9 857.1 552C858.2 553.5 860.9 552 859.7 550.5C844 529.7 831.7 506.6 823.3 481.9C823 481.1 822.3 480.7 821.5 480.9C803.9 484.7 786.1 487 768.1 487.9C766 487.8 766 490.8 768 490.7Z" fill="#161616"/>
<path d="M771.1 575.1C773.8 578.9 776 582.9 777.9 587.2C778.1 587.8 779 588.1 779.6 587.9C794.3 583 808.8 577.6 823 571.5C830.2 568.4 837.3 565.2 844.4 561.8C847.8 560.2 851.2 558.5 854.5 556.8C856.5 555.8 858.8 555.2 859.5 553C859.7 552.4 859.4 551.6 858.8 551.3C857.9 550.8 857.4 550.8 856.5 551.3C855.9 551.6 855.6 552.4 855.8 553C855.8 553.1 855.9 553.2 855.9 553.3C856.4 555.2 859.3 554.4 858.8 552.5C858.8 552.4 858.7 552.3 858.7 552.2C858.5 552.8 858.2 553.3 858 553.9H857.3C857.1 553.3 856.8 552.8 856.6 552.2C856 554 849.7 555.9 848 556.8C845.2 558.2 842.4 559.5 839.5 560.9C832.8 564.1 826 567.1 819.1 570C805.9 575.6 792.4 580.6 778.8 585.1C779.4 585.3 779.9 585.6 780.5 585.8C778.7 581.5 776.4 577.5 773.7 573.7C772.6 572 770 573.5 771.1 575.1ZM788.5 498.5C788.3 497.2 790.7 496 791.6 496.9C792.8 498.1 790.8 500.3 789.4 499.8C787.6 499.1 786.8 502 788.6 502.7C792.9 504.3 797.1 498.1 793.8 494.8C792.3 493.3 790 493.4 788.2 494.3C786.3 495.3 785.3 497.2 785.7 499.3C785.9 501.2 788.8 500.3 788.5 498.5ZM345.4 418.5C356.5 418.7 367.7 418.2 378.7 416.7C390.2 415.1 401.6 411.8 413.3 412.3C415.2 412.4 415.2 409.4 413.3 409.3C402.6 408.9 392.2 411.6 381.7 413.2C369.7 415.1 357.5 415.8 345.3 415.5C343.5 415.5 343.5 418.5 345.4 418.5ZM347 385.4C364 386.7 381 385.2 397.5 380.9C399.4 380.4 398.6 377.5 396.7 378C380.4 382.2 363.8 383.7 347 382.4C345.1 382.3 345.1 385.3 347 385.4ZM731.8 301.2C730.1 312.2 728.7 324.1 735.6 333.7C736.7 335.3 739.3 333.8 738.2 332.2C731.8 323.3 733.2 312.2 734.7 302C735 300.1 732.1 299.3 731.8 301.2Z" fill="#161616"/>
<path d="M732.7 301.1C756.5 302 780.3 299.7 803.5 294.2C802.9 293.9 802.3 293.5 801.7 293.2C803.8 303.5 807.8 313.1 813.4 321.9C814.4 323.5 817 322 816 320.4C810.5 311.8 806.7 302.4 804.6 292.4C804.4 291.6 803.5 291.2 802.8 291.4C779.9 296.8 756.4 299.1 732.8 298.2C730.8 298 730.8 301 732.7 301.1Z" fill="#161616"/>
<path d="M738.1 333.6C763.9 332.8 789.4 329 814.2 322.2C816.1 321.7 815.3 318.8 813.4 319.3C788.8 326.1 763.6 329.9 738.1 330.6C736.1 330.7 736.1 333.7 738.1 333.6ZM1090.7 1032.1V1065.9C1010.7 1097.6 994.4 1108.9 995.6 1113C995.9 1114 998 1117 1040 1112.1C1081.6 1107.2 1115.3 1100.1 1138.7 1094.3C1134.6 1071.2 1130.4 1048.1 1126.3 1025C1114.4 1027.4 1102.5 1029.8 1090.7 1032.1Z" fill="#161616"/>
<path d="M1126.6 553.8C1124.3 558.1 1123.5 561.6 1123.3 562.4C1109 623.2 1090.3 659.1 1078.1 729.6C1054.8 865.4 1074.9 1019.7 1076.8 1034.2C1083.2 1037 1095.5 1041.2 1111.2 1040.6C1125 1040 1135.7 1035.9 1141.8 1033C1139.5 988.7 1141.8 934 1157.1 873.7C1175.8 799.8 1199.5 775.3 1220.8 688.9C1236.6 624.9 1254.9 550.4 1223.3 528.3C1199.1 511.1 1142.4 523.7 1126.6 553.8Z" fill="#D6D6D6"/>
<path opacity="0.2" d="M1181.9 585.7C1165.9 658.7 1151 736.5 1138.4 818.8C1126.5 896.2 1117.6 970.3 1111 1040.7C1121.1 1038.6 1131.1 1036.5 1141.2 1034.4C1139.9 1003.3 1141.3 976.8 1143.3 956.5C1145.7 931.3 1151.8 872.6 1176.3 814C1179.5 806.5 1183.6 797.4 1190.3 780.3C1201.6 752 1209.8 727.8 1213.5 716.4C1230.9 662 1239.6 598.9 1242.3 578.1C1222.1 580.5 1202 583.1 1181.9 585.7Z" fill="#6D6C6C"/>
<path opacity="0.19" d="M1214.9 712.8C1175.7 763.9 1157.4 810.2 1148.2 841.3C1139.8 869.6 1136.1 894.6 1131.3 927C1124.5 973 1121.9 1011.8 1120.8 1039.4C1127.4 1037.8 1133.9 1036.1 1140.5 1034.5C1139.4 995.8 1142.1 962.7 1145.4 936.9C1149.4 906.3 1154 870.8 1170 828.1C1175.8 812.6 1178.6 808.2 1191.8 774.7C1202 748.5 1209.8 727 1214.9 712.8Z" fill="#6D6C6C"/>
<path d="M1306.7 1020.6C1312.3 1034.5 1318 1048.4 1323.6 1062.4C1276.6 1092.3 1254.4 1109.7 1256.9 1114.8C1260 1121.1 1300.6 1108.6 1378.7 1077.5C1370.4 1050.5 1362.1 1023.6 1353.8 996.6L1306.7 1020.6Z" fill="#161616"/>
<path d="M1268.1 555C1292.6 577.4 1291.8 608.8 1294.9 660.8C1294.9 660.8 1302.5 788.7 1328 891.5C1334.4 917.2 1346 957.1 1367.5 1004.9C1363.9 1009.5 1354.1 1020.7 1336.9 1026.6C1319.3 1032.6 1304.3 1029.4 1298.7 1027.9C1268.1 975.7 1246.4 931.2 1232.4 900.4C1167.5 758.2 1162.3 683.3 1162.3 644.2C1162.3 604 1163 555.8 1192.9 539.7C1215.4 527.6 1248.4 537 1268.1 555Z" fill="#D6D6D6"/>
<path opacity="0.15" d="M1198.7 570.3C1209.8 613 1221.8 656.4 1234.6 700.4C1268 814.6 1304.3 922.5 1342.4 1023.7C1346.1 1021.8 1350.6 1019.2 1355.2 1015.7C1359.9 1012.1 1363.6 1008.5 1366.4 1005.3C1361.2 993.2 1354 975.7 1346.4 954.2C1334.9 921.3 1316.2 860.8 1306.5 780.2C1297.2 702.8 1292.5 664.1 1292.9 639.7C1293.2 619.6 1295 578.7 1269 556.7C1263.6 552.2 1258.3 549.5 1254.6 547.9C1235.9 555.4 1217.3 562.9 1198.7 570.3Z" fill="#6D6C6C"/>
<path opacity="0.22" d="M1294.1 665.7C1289.5 712.2 1288 774.5 1299.2 846.5C1310.5 918.9 1331 978 1349.5 1021C1355.2 1016.3 1360.9 1011.6 1366.6 1006.8C1359.8 990.7 1350.9 968.3 1342 940.9C1324.9 888.2 1317.5 847.1 1311.1 810.2C1304.6 772.4 1297.8 723.5 1294.1 665.7Z" fill="#6D6C6C"/>
<path d="M825.9 189.7C821.9 191.7 816.4 195.2 812.1 201.2C809.8 204.3 807 208.4 806.6 214.2C806.5 216.5 806.2 221.5 809.4 224.8C810.3 225.8 812.7 227.7 824.5 227.3C835 226.9 840.3 226.7 843 223.9C848.2 218.5 846.3 208.3 843 202.2C837.8 192.5 827.6 190.1 825.9 189.7Z" fill="white" stroke="#161616" stroke-width="2"/>
<path d="M886.3 214.8C900.4 230.9 923 240.5 964.5 257.6C1016.8 279.2 1043 290 1074 293.8C1107.5 297.9 1125.4 293.6 1131.6 304.5C1139.7 318.6 1120.7 345 1101.1 367.1C1086.5 363.9 1071.4 359.9 1055.8 354.7C970.3 326.4 908.5 276.6 867.9 235.2C862.8 236.3 854.1 237.4 844.2 234.4C835.7 231.9 823.7 225.5 824.4 220.4C825.3 214.2 847 213.1 848.3 213C841.7 210.3 832.2 205.7 821.9 198.2C818.9 196 801.7 183.3 803.8 179.3C805.6 175.8 821.2 180.6 835.9 185.1C849.3 189.2 858.6 192.1 868.8 199.1C878.6 205.7 884.3 212.5 886.3 214.8Z" fill="white" stroke="#161616" stroke-width="2"/>
<path d="M817.1 190.8C819.5 193.5 820 197.1 822.1 199.9C823.9 202.4 826.5 204.2 829.2 205.7C837.3 210.2 845.9 213.9 854.2 218C855.6 218.7 857.4 216.8 856 215.6C851.7 211.9 847.1 208.6 842.3 205.6C840.7 204.6 839.1 207.2 840.8 208.2C845.4 211.1 849.8 214.2 853.9 217.7L855.7 215.3C847.8 211.5 839.9 207.8 832.1 203.7C828.4 201.8 825.1 199.6 823.2 195.8C821.9 193.2 821.2 190.7 819.2 188.5C817.9 187.3 815.8 189.4 817.1 190.8Z" fill="white"/>
<path d="M824.9 201.3C829.5 203.3 833.9 205.9 837.9 209C839.4 210.2 841.5 208.1 840 206.9C835.8 203.6 831.3 200.9 826.4 198.7C824.6 197.9 823.1 200.5 824.9 201.3Z" fill="white"/>
<path d="M813.1 189C816.9 195.1 821.9 200.1 827.8 204.1C829.4 205.2 830.9 202.6 829.3 201.5C823.8 197.8 819.2 193.1 815.7 187.4C814.7 185.9 812.1 187.4 813.1 189Z" fill="white"/>
<path d="M817.6 197.2C819.6 199.9 821.8 202.4 824.3 204.6C826.1 206.2 834 211.9 829.9 214.8C829.1 215.3 829.9 216.6 830.7 216.1C833.5 214.2 832.4 210.8 830.7 208.5C829.4 206.8 827.6 205.5 825.9 204C823.3 201.7 821 199.2 818.9 196.5C818.3 195.6 817 196.4 817.6 197.2Z" fill="#161616"/>
<path d="M815.5 207.6C818.5 211.7 824.2 217.5 829.8 215.8C830.7 215.5 830.3 214.1 829.4 214.4C824.6 215.9 819.3 210.4 816.8 206.9C816.2 206.1 814.9 206.8 815.5 207.6ZM811.1 214.6C814.4 219.1 819.2 221.7 824.8 222C825.8 222.1 825.8 220.6 824.8 220.5C819.8 220.2 815.4 217.8 812.4 213.8C811.8 213 810.5 213.8 811.1 214.6ZM807.9 223.6C812.6 228.5 820.4 228.6 825.1 223.6C825.8 222.9 824.7 221.8 824 222.5C819.9 226.9 813.1 226.8 809 222.5C808.3 221.8 807.2 222.9 807.9 223.6ZM808.9 188.8C820 196.1 828 208.4 841.9 210.8C842.8 211 843.3 209.5 842.3 209.4C828.6 207.1 820.6 194.8 809.7 187.6C808.8 186.9 808.1 188.2 808.9 188.8Z" fill="#161616"/>
<path opacity="0.2" d="M807.7 221.5C804.1 216.6 807.1 206.1 815.8 196.2C825.6 201.9 835.3 207.7 845.1 213.4C843.3 213.4 827.5 213.6 826.4 218.5C826.2 219.3 826.4 220.5 827.9 222.2C832.9 224.6 841.3 227.8 852.1 228.1C857.7 228.2 862.6 227.5 866.4 226.6C886.8 247.2 922.7 278.3 975.5 300.9C1021.9 320.7 1063.5 326.4 1091 328C1090.1 339.8 1089.2 351.5 1088.3 363.3C1043 351.3 981.6 328.5 920.6 282.7C899.8 267.1 882 251 866.8 235.5C852.8 237.8 844.1 235.4 838.6 232.6C833.9 230.2 830.9 227.2 824.7 226.7C820.6 226.4 817.1 227.4 812.6 225.2C812.1 225 809.2 223.5 807.7 221.5Z" fill="#6D6C6C"/>
<path opacity="0.14" d="M936.5 292.1C950.5 299.6 966.7 307.2 985.2 313.7C1025.5 328 1062 332.5 1089.9 333.5C1089.5 343.7 1089.2 354 1088.8 364.2C1059.8 357.4 1023.4 345.5 984.8 323.9C966.3 313.6 950.3 302.7 936.5 292.1Z" fill="#6D6C6C"/>
<path d="M1094.6 320.6C1088.9 333.5 1088.6 344.2 1088.1 363.4C1087.7 377.9 1088.7 393.5 1096.5 434.5C1106 484.1 1110.5 492.1 1112 518.4C1113.2 539 1111.6 555.9 1110.1 567.1C1122.7 574 1143.8 583.4 1171.4 585.5C1220.2 589.2 1256.3 567.7 1268.7 559.5C1270.2 528.1 1271.7 496.6 1273.3 465.2C1267.8 438.4 1261.3 417.4 1256.6 403.6C1241.8 360.1 1228 339.5 1236.8 317.7C1241.7 305.6 1251.4 298.2 1258.1 294.1C1253.4 290.5 1204.1 254 1150.3 272.9C1144.7 274.8 1109.3 287.3 1094.6 320.6Z" fill="white" stroke="#161616" stroke-width="2"/>
<path opacity="0.19" d="M1150.1 272.8C1165.1 296.8 1173.5 318 1178.3 332.8C1178.3 332.8 1201.8 404.2 1184.6 500C1180.9 520.4 1174.3 549.4 1161.3 582.6C1166.3 583.7 1172.3 584.6 1179.1 584.9C1179.1 584.9 1189.6 585.4 1201.4 583.9C1215.8 582 1240.5 574.3 1269.6 559.5L1271.1 459.1C1263.7 430.8 1256.2 408.1 1250.6 392.2C1237.1 354.3 1227.6 336.5 1235.4 317.7C1240.5 305.4 1250.9 297.8 1259 293.4C1248.4 286.4 1228.8 275.5 1202 271.3C1179.9 267.9 1161.7 270.3 1150.1 272.8Z" fill="#6D6C6C"/>
<path opacity="0.11" d="M1163.8 270.5C1179.9 290.3 1198.7 319.2 1210.3 357.3C1243.2 466.1 1189.1 561.5 1176.6 582.4C1187.1 582.3 1199.4 581.4 1212.8 578.8C1236.7 574.2 1255.8 566 1269.5 558.7C1270 527.5 1270.5 496.3 1271 465.2C1262.5 436.3 1254.5 408.9 1243.6 371.7C1236.2 346.2 1230.4 325.3 1241.3 308.6C1246.6 300.5 1254 296 1259.6 293.4C1227.7 285.7 1195.7 278.1 1163.8 270.5Z" fill="#6D6C6C"/>
<path d="M1156.4 474.8C1156.1 453.4 1155.9 432.1 1155.6 410.7C1206.9 408.1 1258.2 405.5 1309.6 402.9C1311.4 422.7 1313.2 442.5 1315.1 462.3C1262.2 466.5 1209.3 470.6 1156.4 474.8Z" fill="white" stroke="#161616" stroke-width="2"/>
<path d="M1140.8 467.8V444.4C1206.7 439.5 1272.6 434.5 1338.5 429.6C1339 439.2 1339.5 448.9 1340.1 458.5C1273.7 461.5 1207.2 464.7 1140.8 467.8Z" fill="white" stroke="#161616" stroke-width="2"/>
<path d="M1146.3 432.6C1147.1 444.1 1147.9 455.5 1148.6 467C1209.6 462.1 1270.5 457.1 1331.5 452.2C1332 441.8 1332.5 431.4 1333.1 420.9C1270.8 424.8 1208.5 428.7 1146.3 432.6Z" fill="white" stroke="#161616" stroke-width="2"/>
<path d="M1131.4 458.4C1133.2 504 1135 549.6 1136.9 595.2C1204.9 587.6 1272.9 580.1 1340.9 572.5L1347.2 438.1C1275.2 444.9 1203.3 451.6 1131.4 458.4Z" fill="white" stroke="#161616" stroke-width="2"/>
<path d="M1143 476.2C1173.9 472.1 1204.8 469.2 1235.9 467.4C1237.3 467.3 1237.3 465.1 1235.9 465.1C1204.8 466.9 1173.8 469.8 1143 473.9C1141.6 474.1 1141.6 476.4 1143 476.2ZM1177.5 482.3C1201.2 479.3 1224.9 476.2 1248.7 473.2C1250.1 473 1250.1 470.8 1248.7 470.9C1225 473.9 1201.3 477 1177.5 480C1176.1 480.3 1176.1 482.5 1177.5 482.3ZM1291.4 546.3C1291 552.6 1291 559 1291.6 565.3C1291.7 566.7 1294 566.7 1293.9 565.3C1293.3 559 1293.2 552.6 1293.7 546.3C1293.8 544.9 1291.5 544.9 1291.4 546.3Z" fill="#161616"/>
<path d="M1292.4 546.5C1304.8 546.8 1317.1 546.1 1329.4 544.5L1328.3 543.4C1328.1 549.2 1328.3 554.9 1328.7 560.6C1328.8 562 1331.1 562 1331 560.6C1330.5 554.9 1330.4 549.1 1330.6 543.4C1330.6 542.8 1330.1 542.2 1329.5 542.3C1317.2 543.9 1304.9 544.5 1292.5 544.3C1290.9 544.2 1290.9 546.4 1292.4 546.5Z" fill="#161616"/>
<path d="M1293.3 567.1C1305.6 567.3 1317.7 566 1329.7 563.3C1331.1 563 1330.5 560.8 1329.1 561.1C1317.3 563.7 1305.4 565 1293.3 564.8C1291.9 564.8 1291.9 567 1293.3 567.1ZM1298 553.5C1305.6 554 1313.1 553.6 1320.7 552.4C1322.1 552.2 1321.5 550 1320.1 550.2C1312.8 551.4 1305.4 551.7 1298 551.2C1296.6 551.1 1296.6 553.4 1298 553.5ZM1302.8 559.8C1310.7 559.6 1318.3 558.1 1325.8 555.4C1327.1 554.9 1326.6 552.7 1325.2 553.2C1318 555.9 1310.5 557.3 1302.8 557.6C1301.4 557.5 1301.3 559.8 1302.8 559.8Z" fill="#161616"/>
<path opacity="0.2" d="M1163.7 590C1165.5 547.8 1167.3 505.6 1169 463.3C1227.4 458.6 1285.9 454 1344.3 449.3C1343 489.3 1341.6 529.3 1340.3 569.3C1281.4 576.2 1222.6 583.1 1163.7 590Z" fill="#6D6C6C"/>
<path opacity="0.2" d="M1322.3 422C1322.6 433.6 1322 447.4 1319 462.7C1311.6 500.3 1293.8 527.4 1281.7 542.7C1289.9 553.6 1298.1 564.5 1306.4 575.4L1231.1 584.1C1235.1 538.3 1239.1 492.5 1243.1 446.8C1241.8 440.8 1240.4 434.8 1239.1 428.8C1266.8 426.4 1294.6 424.2 1322.3 422Z" fill="#6D6C6C"/>
<path d="M1252.7 291.4C1273.6 288.6 1298.5 336.6 1308.4 371.1C1319.8 410.8 1314.8 445.1 1310.7 463.2C1302.7 498.7 1286.1 523.7 1275.7 537.2C1277.3 542.5 1281 556.9 1274.9 572.7C1265.9 595.8 1241.5 606.9 1239.6 604.8C1239 604.1 1240.2 601.2 1249.7 590.3C1247.7 592.4 1233.3 606.7 1217.1 603.3C1214.3 602.7 1210.8 602 1208.8 599.2C1204.1 592.4 1211.9 577 1228.5 559.9C1210.4 564.4 1205.6 563.2 1204.7 561.2C1202.4 556.4 1220.9 542.8 1227.6 537.8C1237.5 530.5 1246.4 525.5 1252.5 522.4C1269.6 486.9 1268.7 459.2 1267.2 446.2C1265 427 1257.8 406.1 1256.4 402.1C1252.4 390.6 1250.5 388 1242.5 367.3C1229.6 334.1 1229.6 328.4 1230.1 324C1231.9 310.8 1240.8 293 1252.7 291.4Z" fill="white" stroke="#161616" stroke-width="2"/>
<path d="M1209.2 596.4C1220.3 590.1 1230 582 1238.1 572.2C1239.3 570.7 1237.2 568.6 1236 570.1C1228.1 579.7 1218.6 587.7 1207.7 593.9C1206 594.7 1207.5 597.3 1209.2 596.4ZM1219 603.1C1230 597.4 1239.4 589.5 1247 579.7C1248.2 578.2 1245.6 576.7 1244.4 578.2C1237.2 587.6 1228 595.1 1217.5 600.5C1215.8 601.4 1217.3 604 1219 603.1Z" fill="#161616"/>
<path opacity="0.17" d="M1244.3 296.2C1224.4 313.5 1305.6 389.4 1291.7 475.6C1282.2 534.7 1242.8 573.3 1242.8 573.3C1231.8 584.3 1211.1 597.8 1213.6 602.5C1215.4 605.9 1227.9 602.8 1232.4 601.4C1240.9 598.8 1246.8 594.4 1250.1 591.5C1245.1 597.1 1239.4 604 1240.6 605.4C1242.3 607.2 1256.5 599.8 1265.4 589.4C1280.8 571.4 1278.6 546.4 1277.1 536.2C1280.7 531.5 1285.4 524.9 1290.2 516.5C1294.6 509 1307.3 485.6 1312.8 453.8C1322.5 397.5 1302.6 353.1 1294.6 335.7C1287.4 320.2 1275.2 294.5 1256.7 293.4C1254.3 293.1 1248.2 292.8 1244.3 296.2Z" fill="#6D6C6C"/>
<path opacity="0.22" d="M1311.7 452.2C1306.3 467.9 1299.9 484.4 1292.3 501.7C1286.9 514 1281.4 525.5 1275.8 536.4C1273 545.4 1267.7 558.9 1257.2 572.8C1246.2 587.4 1234.1 596.3 1226 601.4C1228.3 601.5 1231.1 601.3 1234.2 600.5C1242 598.7 1247.2 594.4 1249.8 591.8C1246.8 595.6 1243.7 599.3 1240.7 603.1C1243.1 602.7 1246.9 602 1251.1 600.1C1273.1 590.2 1277.7 563.3 1278 561.5C1278.8 556.6 1279.3 548.2 1276.3 537.8C1283.5 529.3 1292.6 516.6 1299.9 499.5C1308 480.7 1310.7 463.8 1311.7 452.2Z" fill="#6D6C6C"/>
<path d="M1071.6 225.6C1055.5 244 1066.6 269.7 1068.1 273.2C1073.7 286.2 1088.2 304.7 1106.6 303.2C1120 302 1128.5 290.7 1130.6 287.7C1145.4 266.4 1140.5 225.7 1115.5 215.2C1101.7 209.4 1082.7 212.8 1071.6 225.6Z" fill="#F24088"/>
<path d="M1112.2 242C1112.9 249.9 1121.2 251.6 1126.8 264.6C1130.8 274 1130.8 283.2 1130.1 289.8C1136.6 290.4 1148.6 290.7 1162.2 285.5C1172.9 281.4 1180.4 275.5 1184.9 271.4C1182.8 266.7 1179.7 259.8 1176 251.6C1160 216.7 1157.4 213.7 1153.5 212.2C1137.9 206.3 1110.9 227.3 1112.2 242Z" fill="white" stroke="#161616" stroke-width="2"/>
<path d="M1054.6 138.7C1051.2 143.5 1049.1 149.4 1048.8 174.7C1048.6 196.3 1049.8 216 1051.8 233.5L1065.3 225.7C1067.3 230.6 1070.7 237.3 1076.5 243.8C1088 256.7 1102 261.1 1108.2 262.7C1114.7 261.1 1130.9 256.1 1143.2 240.8C1151.3 230.6 1153.9 220.5 1154.5 218.2C1158.2 203.1 1154.6 190.6 1152.7 185.4C1155.1 184.3 1158.8 182.2 1161.6 178.4C1167.5 170.4 1169.1 156.1 1161.8 151.3C1156.4 147.7 1146.8 149.8 1139.6 157.2C1138 153.5 1135.5 148.4 1131.5 143.1C1130.5 141.8 1123 132 1113.8 126.9C1096.1 116.7 1066.8 121.5 1054.6 138.7Z" fill="white" stroke="#161616" stroke-width="2"/>
<path d="M1047.3 170.1C1043.3 169.4 1035.9 167.3 1032.4 161.2C1026.4 150.9 1035.2 135.2 1037.4 131.3C1039.2 128 1044 120.1 1064.4 105.8C1079.9 94.9 1087.7 89.5 1096.1 86.9C1125.9 78 1153.2 93.4 1158.3 96.3C1169 102.4 1175.8 109 1181.2 114.2C1189.5 122.2 1198.8 131.4 1209.2 142C1235.9 176.6 1245.3 208.2 1249.1 227.1C1253.4 248.5 1257.8 270.3 1245 283.1C1232.2 295.9 1208.8 293.3 1194.5 287.2C1174.6 278.7 1166.1 260.7 1159.5 246.8C1148.3 223 1147.6 200.2 1148.7 185.4C1158.7 182.5 1163.8 173.1 1161.5 166C1159.7 160.4 1153 154.8 1146.1 156.8C1140.8 158.3 1137 163.8 1137.3 170.2C1132.5 170.1 1119.7 169 1107.5 159.8C1098.6 153.1 1094.1 145.1 1092 140.7C1086.5 141.4 1075.5 143.4 1064.4 151.4C1055.1 157.8 1049.9 165.5 1047.3 170.1Z" fill="#F24088"/>
<path opacity="0.24" d="M1113.5 189.2C1125.5 203.7 1129.3 219 1129.3 219C1133.2 236.2 1127.6 250.8 1125.1 256.7C1131.4 251.9 1137.8 247.1 1144.1 242.3C1148.5 256.9 1152.8 271.4 1157.2 286C1160.5 285.7 1167.3 284.5 1174.1 279.7C1179.3 276 1182.4 271.7 1184.1 269C1176 261.5 1160.5 244.9 1153.4 218.8C1150 206.2 1149.5 195 1149.9 186.6C1159 182.9 1163.7 174 1161.8 166.6C1160.4 161.2 1154.9 154.7 1147.8 155.7C1141.9 156.6 1137 162.4 1137.1 169.5C1132.6 169.5 1122 169 1110.9 162.3C1099.4 155.4 1093.9 145.8 1091.8 141.7C1092.3 160.9 1098.2 172 1103.5 178.6C1107 183.1 1108.6 183.3 1113.5 189.2Z" fill="#6D6C6C"/>
<path d="M1067 185C1065.9 189 1066 193.1 1067.5 197C1068 198.4 1069.9 198.5 1070.4 197C1071.6 193.4 1071.6 189.6 1070.5 186C1069.9 184.2 1067 184.9 1067.6 186.8C1068.6 190 1068.5 193.1 1067.5 196.3H1070.4C1069.1 192.9 1068.9 189.4 1069.9 185.9C1070.4 183.9 1067.6 183.1 1067 185ZM1063.4 178.8C1066 177.2 1069.2 177.5 1071.4 179.6C1072.8 180.9 1074.9 178.8 1073.5 177.5C1070.4 174.5 1065.6 173.9 1061.9 176.2C1060.3 177.2 1061.8 179.8 1063.4 178.8ZM1074.2 204.2C1076.1 204.2 1076.1 201.2 1074.2 201.2C1072.2 201.2 1072.2 204.2 1074.2 204.2ZM1080.8 195.5V195.8C1080.8 196.6 1081.5 197.3 1082.3 197.3C1083.1 197.3 1083.8 196.6 1083.8 195.8V195.5C1083.8 194.7 1083.1 194 1082.3 194C1081.5 194 1080.8 194.6 1080.8 195.5ZM1081.1 203C1083 203 1083 200 1081.1 200C1079.2 200 1079.2 203 1081.1 203ZM1039.9 189.6C1038.7 193.6 1038.8 197.7 1040.2 201.6C1040.7 203 1042.6 203 1043.1 201.6C1044.3 198 1044.4 194.2 1043.4 190.6C1042.9 188.7 1040 189.5 1040.5 191.4C1041.4 194.6 1041.3 197.7 1040.2 200.8H1043.1C1041.9 197.4 1041.7 193.9 1042.8 190.4C1043.3 188.5 1040.4 187.7 1039.9 189.6ZM1038.2 182.1C1040.3 181 1043.2 181.5 1044.6 183.5C1045.7 185 1048.3 183.5 1047.2 182C1044.7 178.7 1040.4 177.6 1036.7 179.5C1035 180.4 1036.5 183 1038.2 182.1ZM1071.9 236.5C1079.6 235.1 1086.3 231 1091.3 224.9C1092.2 223.8 1090.6 222.2 1089.7 223.3C1085 229.1 1078.7 232.9 1071.3 234.3C1069.9 234.6 1070.5 236.8 1071.9 236.5Z" fill="#161616"/>
<path d="M1087.5 223.5C1089.3 224.1 1090.8 225 1092.1 226.3C1093.1 227.3 1094.7 225.7 1093.7 224.7C1092.1 223.1 1090.2 222 1088.1 221.3C1086.7 220.9 1086.1 223.1 1087.5 223.5Z" fill="#161616"/>
<path opacity="0.45" d="M1149.8 92.7C1162.5 110.3 1178.8 135.2 1194.3 167C1210.7 200.6 1222.7 225.9 1213.4 235.9C1201.1 249.2 1158.6 228.1 1151.8 224.6C1153.2 233.7 1156.7 248.2 1167 262.7C1172.2 270 1181.3 282.9 1198.1 288.9C1208.2 292.5 1217.2 292.3 1220.7 292C1225.4 291.7 1230.8 291.3 1236.7 288.1C1236.7 288.1 1244.4 284 1249.6 275.6C1257.5 262.8 1253.3 245.5 1247.7 223.8C1241 197.8 1232 180.5 1223.2 163.4C1221 159.2 1218.4 154.3 1214.2 148.6C1210 142.8 1206.9 139.7 1193.9 127.2C1174.6 108.5 1171.6 105.8 1165.8 101.9C1159.4 97.5 1153.7 94.6 1149.8 92.7Z" fill="#22212C"/>
<path opacity="0.43" d="M1125.7 262.8C1126.5 265.1 1128.3 271.6 1125.7 278.8C1121.8 289.5 1111 293.1 1109.3 293.6C1097 297.6 1081.5 291.3 1071.1 277.6C1072.5 281.2 1075.6 287.6 1082 293.2C1085.2 296 1093.9 303.5 1106.2 302.6C1108.3 302.4 1121.8 301.4 1128 289.7C1132.5 281.4 1131.5 271 1125.7 262.8Z" fill="#22212C"/>
</svg>
